<?xml version="1.0" standalone="no"?>
<!DOCTYPE svg PUBLIC "-//W3C//DTD SVG 20010904//EN"
 "http://www.w3.org/TR/2001/REC-SVG-20010904/DTD/svg10.dtd">
<svg version="1.0" xmlns="http://www.w3.org/2000/svg"
 width="32.000000pt" height="32.000000pt" viewBox="0 0 32.000000 32.000000"
 preserveAspectRatio="xMidYMid meet">

<g transform="translate(0.000000,32.000000) scale(0.100000,-0.100000)"
fill="#000000" stroke="none">
<path d="M183 282 c9 -10 22 -33 28 -50 10 -30 39 -45 39 -22 0 21 -30 70 -49
80 -29 15 -36 12 -18 -8z"/>
<path d="M86 246 c-18 -38 -21 -121 -6 -160 10 -27 45 -66 59 -66 4 0 -3 21
-16 48 -21 41 -24 58 -21 130 2 45 2 82 2 82 -1 0 -9 -15 -18 -34z"/>
<path d="M221 83 c-13 -47 -7 -54 13 -14 18 34 20 51 6 51 -5 0 -14 -17 -19
-37z"/>
</g>
</svg>
